<svg width="17" height="17" viewBox="0 0 17 17" fill="none" xmlns="http://www.w3.org/2000/svg">
<path d="M14.3333 2.58322C13.5696 1.81387 12.6607 1.20403 11.6593 0.789141C10.6579 0.374256 9.58392 0.16263 8.49996 0.166558C7.0509 0.167974 5.62754 0.550099 4.37257 1.27466C3.11761 1.99922 2.07504 3.0408 1.34927 4.29506C0.623501 5.54933 0.240022 6.9723 0.237209 8.42136C0.234407 9.87053 0.612386 11.2949 1.33329 12.552L0.166626 16.8332L4.54163 15.6874C5.7497 16.3595 7.10715 16.7177 8.48954 16.7291C10.6871 16.7292 12.7958 15.8612 14.3564 14.3141C15.9171 12.7671 16.8036 10.6662 16.8229 8.46865C16.8156 7.37209 16.5918 6.28776 16.1646 5.27782C15.7375 4.26787 15.1151 3.35218 14.3333 2.58322ZM8.49996 15.302C7.2684 15.3028 6.05934 14.9718 4.99996 14.3437L4.74996 14.1874L2.15621 14.8749L2.84371 12.3437L2.67704 12.0832C1.79084 10.6527 1.46011 8.94678 1.74748 7.28865C2.03486 5.63058 2.92039 4.13547 4.23631 3.08659C5.55225 2.03769 7.20715 1.50787 8.88756 1.59748C10.568 1.68709 12.1573 2.38991 13.3541 3.57281C14.6625 4.85217 15.4114 6.5973 15.4375 8.42698C15.421 10.256 14.6828 12.0046 13.3835 13.2922C12.0843 14.5797 10.3291 15.3021 8.49996 15.302ZM12.2604 10.1562C12.052 10.052 11.0416 9.55198 10.8541 9.48948C10.6666 9.42698 10.5208 9.38532 10.3854 9.59365C10.1816 9.87292 9.96246 10.1406 9.72913 10.3957C9.61454 10.5416 9.48954 10.552 9.28121 10.3957C8.0934 9.92636 7.10381 9.06178 6.47913 7.94782C6.26038 7.58323 6.68746 7.60407 7.08329 6.82282C7.11256 6.76646 7.12777 6.70396 7.12777 6.64053C7.12777 6.57709 7.11256 6.51459 7.08329 6.45823C7.08329 6.35406 6.61454 5.33322 6.44788 4.92697C6.28121 4.52072 6.11454 4.58322 5.97913 4.57281H5.57288C5.46762 4.57442 5.36392 4.5985 5.26871 4.6434C5.1735 4.68831 5.08898 4.75303 5.02079 4.83322C4.78706 5.06049 4.60476 5.33522 4.48617 5.63889C4.36757 5.94256 4.31545 6.26812 4.33329 6.59365C4.3986 7.37292 4.69207 8.11563 5.17704 8.72907C6.06475 10.058 7.28131 11.1346 8.70829 11.8541C9.45673 12.2909 10.3265 12.4737 11.1875 12.3749C11.4741 12.318 11.7457 12.2015 11.9843 12.0327C12.2231 11.8641 12.4236 11.647 12.5729 11.3957C12.7112 11.0891 12.7548 10.7481 12.6979 10.4166C12.6041 10.3124 12.4687 10.2603 12.2604 10.1562Z" fill="#262626"/>
</svg>
