<svg width="17" height="17" viewBox="0 0 17 17" fill="none" xmlns="http://www.w3.org/2000/svg">
<path d="M16.1666 8.54797C16.1487 7.08699 15.7136 5.66156 14.9126 4.43955C14.1117 3.21754 12.9782 2.24985 11.6458 1.65044C10.3132 1.05103 8.83718 0.844871 7.39144 1.05623C5.94573 1.2676 4.59049 1.88768 3.48537 2.84347C2.38024 3.79926 1.57124 5.05094 1.15365 6.45109C0.736066 7.85126 0.727269 9.34157 1.12831 10.7466C1.52936 12.1516 2.32353 13.4127 3.4173 14.3814C4.51107 15.3502 5.85889 15.9863 7.30203 16.2146V10.7809H5.38537V8.54797H7.30203V6.85172C7.25766 6.45733 7.3004 6.05798 7.42728 5.6819C7.55417 5.30581 7.76203 4.96215 8.03621 4.67518C8.31039 4.38819 8.64418 4.16489 9.01409 4.02104C9.38401 3.87717 9.78105 3.81625 10.177 3.84259C10.7518 3.85045 11.3253 3.90171 11.8924 3.99592V5.91258H10.9341C10.7689 5.89174 10.601 5.9083 10.4431 5.96104C10.285 6.01378 10.1409 6.10134 10.0213 6.21726C9.9017 6.33318 9.8097 6.47449 9.7521 6.63073C9.69441 6.78704 9.67266 6.95427 9.68828 7.12006V8.56714H11.8158L11.4708 10.8001H9.69786V16.1667C11.509 15.8803 13.1575 14.9541 14.3443 13.5563C15.5311 12.1585 16.1776 10.3816 16.1666 8.54797Z" fill="#262626"/>
</svg>
